{
  "accessors": [
    {
      "bufferView": 2,
      "componentType": 5126,
      "count": 40603,
      "max": [
        90.039070129394531,
        46.164047241210938,
        70.581588745117188
      ],
      "min": [
        0,
        0,
        0
      ],
      "type": "VEC3"
    },
    {
      "bufferView": 2,
      "byteOffset": 487236,
      "componentType": 5126,
      "count": 40603,
      "max": [
        0.99991261959075928,
        0.99962759017944336,
        0.9998440146446228
      ],
      "min": [
        -0.99975359439849854,
        -0.99981391429901123,
        -0.99987536668777466
      ],
      "type": "VEC3"
    },
    {
      "bufferView": 3,
      "componentType": 5126,
      "count": 40603,
      "max": [
        0.99999338388442993,
        0.99987536668777466,
        0.99995672702789307,
        1
      ],
      "min": [
        -0.99997133016586304,
        -0.99992305040359497,
        -0.99998801946640015,
        -1
      ],
      "type": "VEC4"
    },
    {
      "bufferView": 1,
      "componentType": 5126,
      "count": 40603,
      "max": [
        0.99587500095367432,
        0.99978798627853394
      ],
      "min": [
        0.00036599999293684959,
        0.0039059999398887157
      ],
      "type": "VEC2"
    },
    {
      "bufferView": 0,
      "componentType": 5125,
      "count": 149997,
      "max": [
        40602
      ],
      "min": [
        0
      ],
      "type": "SCALAR"
    }
  ],
  "asset": {
    "extras": {
      "author": "objets3D (https://sketchfab.com/objets3D)",
      "license": "CC-BY-4.0 (http://creativecommons.org/licenses/by/4.0/)",
      "source": "https://sketchfab.com/models/d045eaf534384d9eb926245a5a09ead4",
      "title": "Raspberry"
    },
    "generator": "Sketchfab-3.18.5",
    "version": "2.0"
  },
  "bufferViews": [
    {
      "buffer": 0,
      "byteLength": 599988,
      "byteOffset": 0,
      "name": "floatBufferViews",
      "target": 34963
    },
    {
      "buffer": 0,
      "byteLength": 324824,
      "byteOffset": 599988,
      "byteStride": 8,
      "name": "floatBufferViews",
      "target": 34962
    },
    {
      "buffer": 0,
      "byteLength": 974472,
      "byteOffset": 924812,
      "byteStride": 12,
      "name": "floatBufferViews",
      "target": 34962
    },
    {
      "buffer": 0,
      "byteLength": 649648,
      "byteOffset": 1899284,
      "byteStride": 16,
      "name": "floatBufferViews",
      "target": 34962
    }
  ],
  "buffers": [
    {
      "byteLength": 2548932,
      "uri": "scene.bin"
    }
  ],
  "images": [
    {
      "uri": "textures/rpi_L_baseColor.jpeg"
    }
  ],
  "materials": [
    {
      "doubleSided": true,
      "emissiveFactor": [
        0,
        0,
        0
      ],
      "name": "rpi_L",
      "pbrMetallicRoughness": {
        "baseColorFactor": [
          1,
          1,
          1,
          1
        ],
        "baseColorTexture": {
          "index": 0,
          "texCoord": 0
        },
        "metallicFactor": 0,
        "roughnessFactor": 0.59999999999999998
      }
    }
  ],
  "meshes": [
    {
      "primitives": [
        {
          "attributes": {
            "NORMAL": 1,
            "POSITION": 0,
            "TANGENT": 2,
            "TEXCOORD_0": 3
          },
          "indices": 4,
          "material": 0,
          "mode": 4
        }
      ]
    }
  ],
  "nodes": [
    {
      "children": [
        1
      ],
      "name": "RootNode (gltf orientation matrix)",
      "rotation": [
        -0.70710678118654746,
        -0,
        -0,
        0.70710678118654757
      ]
    },
    {
      "children": [
        2
      ],
      "matrix": [
        0.78150320053100586,
        0.26074305176734924,
        0.56680315732955933,
        0,
        -0.35485857725143433,
        0.93298763036727905,
        0.060079194605350494,
        0,
        -0.51315510272979736,
        -0.24808704853057861,
        0.82165968418121338,
        0,
        -18.193077087402344,
        1.9172670841217041,
        12.470826148986816,
        1
      ],
      "name": "RootNode (model correction matrix)"
    },
    {
      "children": [
        3
      ],
      "matrix": [
        1,
        0,
        0,
        0,
        0,
        1,
        0,
        0,
        0,
        0,
        1,
        0,
        -66.955474853515625,
        -48.678359985351562,
        -43.703460693359375,
        1
      ],
      "name": "rpi_L.obj.cleaner.materialmerger.gles"
    },
    {
      "children": [
        4
      ],
      "name": ""
    },
    {
      "mesh": 0,
      "name": ""
    }
  ],
  "samplers": [
    {
      "magFilter": 9729,
      "minFilter": 9987,
      "wrapS": 10497,
      "wrapT": 10497
    }
  ],
  "scene": 0,
  "scenes": [
    {
      "name": "OSG_Scene",
      "nodes": [
        0
      ]
    }
  ],
  "textures": [
    {
      "sampler": 0,
      "source": 0
    }
  ]
}

