{
  "accessors": [
    {
      "bufferView": 1,
      "componentType": 5126,
      "count": 260,
      "max": [
        1.0489300489425659,
        1.2100000381469727,
        1.75
      ],
      "min": [
        -1.2100000381469727,
        -1.2100000381469727,
        -1.6895500421524048
      ],
      "type": "VEC3"
    },
    {
      "bufferView": 1,
      "byteOffset": 3120,
      "componentType": 5126,
      "count": 260,
      "max": [
        0.99999916553497314,
        0.99835002422332764,
        1
      ],
      "min": [
        -0.99835002422332764,
        -0.99835002422332764,
        -1
      ],
      "type": "VEC3"
    },
    {
      "bufferView": 0,
      "componentType": 5125,
      "count": 1236,
      "max": [
        259
      ],
      "min": [
        0
      ],
      "type": "SCALAR"
    },
    {
      "bufferView": 1,
      "byteOffset": 6240,
      "componentType": 5126,
      "count": 282,
      "max": [
        0.74834001064300537,
        0.11225000023841858,
        -0.50328999757766724
      ],
      "min": [
        -0.74834001064300537,
        -0.11225000023841858,
        -9.8367795944213867
      ],
      "type": "VEC3"
    },
    {
      "bufferView": 1,
      "byteOffset": 9624,
      "componentType": 5126,
      "count": 282,
      "max": [
        1,
        1,
        1
      ],
      "min": [
        -1,
        -1,
        -1
      ],
      "type": "VEC3"
    },
    {
      "bufferView": 0,
      "byteOffset": 4944,
      "componentType": 5125,
      "count": 516,
      "max": [
        281
      ],
      "min": [
        0
      ],
      "type": "SCALAR"
    }
  ],
  "asset": {
    "extras": {
      "author": "Jiří Kuba (https://sketchfab.com/kuba.jirka)",
      "license": "CC-BY-4.0 (http://creativecommons.org/licenses/by/4.0/)",
      "source": "https://sketchfab.com/models/b962a42c45cc428b8c03cad469c3e42d",
      "title": "LED light"
    },
    "generator": "Sketchfab-3.18.7",
    "version": "2.0"
  },
  "bufferViews": [
    {
      "buffer": 0,
      "byteLength": 7008,
      "byteOffset": 0,
      "name": "floatBufferViews",
      "target": 34963
    },
    {
      "buffer": 0,
      "byteLength": 13008,
      "byteOffset": 7008,
      "byteStride": 12,
      "name": "floatBufferViews",
      "target": 34962
    }
  ],
  "buffers": [
    {
      "byteLength": 20016,
      "uri": "scene.bin"
    }
  ],
  "materials": [
    {
      "alphaMode": "BLEND",
      "doubleSided": true,
      "emissiveFactor": [
        1,
        0.079290970500000002,
        0.081720414599999999
      ],
      "name": "LedMaterial",
      "pbrMetallicRoughness": {
        "baseColorFactor": [
          1,
          0.052860646999999997,
          0.054480276399999999,
          0.80000000000000004
        ],
        "metallicFactor": 1,
        "roughnessFactor": 0.29096798779999999
      }
    },
    {
      "doubleSided": true,
      "emissiveFactor": [
        0,
        0,
        0
      ],
      "name": "IronMaterial",
      "pbrMetallicRoughness": {
        "baseColorFactor": [
          0.31081256270000002,
          0.31081256270000002,
          0.31081256270000002,
          1
        ],
        "metallicFactor": 0.5322027439,
        "roughnessFactor": 0
      }
    }
  ],
  "meshes": [
    {
      "name": "Cylinder_0",
      "primitives": [
        {
          "attributes": {
            "NORMAL": 1,
            "POSITION": 0
          },
          "indices": 2,
          "material": 0,
          "mode": 4
        }
      ]
    },
    {
      "name": "Cylinder_1",
      "primitives": [
        {
          "attributes": {
            "NORMAL": 4,
            "POSITION": 3
          },
          "indices": 5,
          "material": 1,
          "mode": 4
        }
      ]
    }
  ],
  "nodes": [
    {
      "children": [
        1
      ],
      "name": "RootNode (gltf orientation matrix)",
      "rotation": [
        -0.70710678118654746,
        -0,
        -0,
        0.70710678118654757
      ]
    },
    {
      "children": [
        2
      ],
      "name": "RootNode (model correction matrix)"
    },
    {
      "children": [
        3
      ],
      "name": "Root"
    },
    {
      "children": [
        4,
        5
      ],
      "name": "Cylinder"
    },
    {
      "mesh": 0,
      "name": "Cylinder_0"
    },
    {
      "mesh": 1,
      "name": "Cylinder_1"
    }
  ],
  "scene": 0,
  "scenes": [
    {
      "name": "OSG_Scene",
      "nodes": [
        0
      ]
    }
  ]
}

